<mxfile host="app.diagrams.net" modified="2024-03-31T08:55:32.889Z" agent="Mozilla/5.0 (Macintosh; Intel Mac OS X 10_15_7) AppleWebKit/537.36 (KHTML, like Gecko) Chrome/123.0.0.0 Safari/537.36" version="24.2.1" etag="_hIR49-Rn7EeMZ7KVWNy" type="github">
  <diagram name="페이지-1" id="6UZj8g2bmW1IBd67iwDP">
    <mxGraphModel>
      <root>
        <mxCell id="0" />
        <mxCell id="1" parent="0" />
      </root>
    </mxGraphModel>
  </diagram>
</mxfile>
